<svg xmlns="http://www.w3.org/2000/svg">
  <symbol fill="currentColor" viewBox="0 0 20 21" id="phone">
    <g clip-path="url(#a)">
      <path d="M17.9 9.753H9.4v1.204h8.5l-2.1 2.107.9.903 3.1-3.11a.754.754 0 0 0 0-.904l-3.1-3.11-.9.903 2.1 2.007ZM8.1 19.787v-6.221a.653.653 0 0 0-.6-.602H3.1a1.226 1.226 0 0 0 1.2 1.204h2.5v5.017H3.1a1.784 1.784 0 0 1-1.728-1.02 1.801 1.801 0 0 1-.172-.686V3.431a1.78 1.78 0 0 1 .483-1.25A1.767 1.767 0 0 1 2.9 1.624h3.9v5.017H4.4a1.218 1.218 0 0 0-1.2 1.204h4.4a.649.649 0 0 0 .6-.602V.923A.863.863 0 0 0 7.5.32H3.1a2.99 2.99 0 0 0-2.151.81A3.01 3.01 0 0 0 0 3.23v13.948a2.91 2.91 0 0 0 .772 2.192 2.89 2.89 0 0 0 2.128.919h4.6a.499.499 0 0 0 .6-.502Z"></path>
    </g>
    <defs>
      <clipPath id="a">
        <path fill="none" transform="translate(0 .32)" d="M0 0h20v20.069H0z"></path>
      </clipPath>
    </defs>
  </symbol>
  <symbol fill="none" viewBox="0 0 19 14" id="email">
    <path stroke="currentColor" stroke-width="1.3" d="M1.179 6v8M18.179 6v8M1 13.35h18M.529 1.35h18M17.88 3.182 9.53 9.677 1.18 3.182V1.65h16.7v1.532Z"></path>
  </symbol>
</svg>
